<svg xmlns="http://www.w3.org/2000/svg" xmlns:xlink="http://www.w3.org/1999/xlink" xml:space="preserve" style="shape-rendering:geometricPrecision;text-rendering:geometricPrecision;image-rendering:optimizeQuality;" viewBox="0 0 100 125" x="0px" y="0px" fill-rule="evenodd" clip-rule="evenodd"><defs><style type="text/css">
   
    .fil0 {fill:black;fill-rule:nonzero}
   
  </style></defs><g><path class="fil0" d="M74.9353 32.1767l-30.8245 -4.254 -22.0787 33.9011 3.5736 0.4931 27.2522 3.7603 19.8508 -30.4809 2.2266 -3.4196zm-49.1481 31.1879l-2.784 4.2753 32.1541 4.4367 22.8106 -35.0261 -4.5856 -0.6327 -19.8508 30.4809 -0.1758 0.2698 -0.3164 -0.0436 -27.2521 -3.7603zm48.2062 -27.8852l4.902 0.6764 0.7925 0.1094 -0.4353 0.6684 -23.4216 35.9645 -0.1758 0.2698 -0.3164 -0.0436 -33.2631 -4.5897 -0.7924 -0.1094 0.4352 -0.6684 2.9597 -4.5452 -3.5736 -0.4931 -0.7925 -0.1094 0.4353 -0.6684 22.6898 -34.8395 0.1758 -0.2698 0.3164 0.0436 31.9333 4.4071 0.7924 0.1094 -0.4352 0.6684 -2.2265 3.4195z"/></g></svg>
