<svg data-v-1084b650="" xmlns="http://www.w3.org/2000/svg" viewBox="0 0 300 300"><!----> <!----> <rect data-v-1084b650="" fill="#E5D3DA" x="0" y="0" width="300px" height="300px" class="logo-background-square"></rect> <!----> <g data-v-1084b650="" id="0e365b9c-2af9-f2a8-09be-2aa9c19f834c" fill="#240A14" transform="matrix(4.599999999999999,0,0,4.599999999999999,35.20699286460879,164.32670726776124)"><path d="M10.29 13.03L9.73 12.87L6.10 3.79L4.73 3.79L1.09 12.87L0.53 13.03C0.42 13.06 0.35 13.13 0.35 13.26L0.35 13.82L3.22 13.82L3.22 13.26C3.22 13.13 3.16 13.06 3.04 13.03L2.46 12.87L3.25 10.85L7.57 10.85L8.36 12.87L7.78 13.03C7.66 13.06 7.59 13.13 7.59 13.26L7.59 13.82L10.47 13.82L10.47 13.26C10.47 13.13 10.40 13.06 10.29 13.03ZM3.63 9.87L5.12 6.02C5.21 5.80 5.29 5.49 5.40 5.07C5.50 5.45 5.60 5.75 5.71 6.01L7.20 9.87ZM13.47 8.18L13.38 7.07C13.36 6.94 13.33 6.86 13.27 6.80C13.22 6.75 13.15 6.73 13.01 6.73L12.29 6.73L11.28 6.73L11.28 7.32C11.28 7.46 11.35 7.56 11.49 7.59C11.58 7.62 11.84 7.67 12.29 7.76L12.29 12.81L11.49 12.96C11.35 12.99 11.28 13.09 11.28 13.23L11.28 13.82L14.55 13.82L14.55 13.23C14.55 13.09 14.48 12.99 14.34 12.96C13.92 12.88 13.65 12.84 13.54 12.81L13.54 9.31C13.93 8.33 14.55 7.83 15.36 7.83C15.61 7.83 15.79 7.85 15.93 7.90C16.07 7.94 16.18 7.97 16.27 7.97C16.35 7.97 16.42 7.90 16.45 7.78L16.60 6.85C16.32 6.68 16.00 6.59 15.64 6.59C14.71 6.59 14 7.13 13.48 8.18ZM23.49 12.82L21.67 10.12L23.35 7.74C23.69 7.69 23.95 7.63 24.09 7.60C24.23 7.57 24.30 7.48 24.30 7.34L24.30 6.73L21.53 6.73L21.53 7.34C21.53 7.48 21.60 7.57 21.74 7.60C21.74 7.60 21.81 7.62 21.90 7.63C21.98 7.64 22.06 7.66 22.12 7.67L21.08 9.20C21 9.34 20.94 9.45 20.90 9.59L19.66 7.66C19.84 7.63 19.92 7.60 19.94 7.60C20.08 7.57 20.16 7.49 20.16 7.35L20.16 6.73L17.39 6.73L17.39 7.35C17.39 7.49 17.44 7.57 17.58 7.60C17.67 7.63 17.93 7.66 18.33 7.74L20.02 10.21L18.21 12.84C18.16 12.84 18.05 12.87 17.88 12.89C17.71 12.92 17.60 12.96 17.54 12.98C17.40 13.01 17.33 13.09 17.33 13.23L17.33 13.83L20.12 13.83L20.12 13.23C20.12 13.09 20.05 13.01 19.91 12.98C19.88 12.98 19.80 12.95 19.66 12.92C19.60 12.91 19.54 12.89 19.49 12.89L20.66 11.16C20.72 11.05 20.78 10.93 20.80 10.79L22.18 12.91C21.98 12.94 21.84 12.98 21.81 12.98C21.67 13.01 21.60 13.09 21.60 13.23L21.60 13.83L24.39 13.83L24.39 13.23C24.39 13.09 24.30 12.98 24.14 12.95C23.97 12.92 23.77 12.89 23.52 12.84ZM26.31 5.12C26.39 5.21 26.47 5.26 26.59 5.32C26.70 5.38 26.81 5.39 26.92 5.39C27.03 5.39 27.15 5.38 27.26 5.32C27.37 5.26 27.45 5.21 27.54 5.12C27.62 5.04 27.68 4.96 27.73 4.84C27.79 4.73 27.82 4.62 27.82 4.51C27.82 4.40 27.79 4.27 27.73 4.16C27.68 4.05 27.62 3.95 27.54 3.86C27.45 3.78 27.37 3.72 27.26 3.67C27.15 3.61 27.03 3.60 26.92 3.60C26.81 3.60 26.70 3.61 26.59 3.67C26.47 3.72 26.39 3.78 26.31 3.86C26.22 3.95 26.17 4.05 26.11 4.16C26.05 4.27 26.04 4.40 26.04 4.51C26.04 4.62 26.05 4.73 26.11 4.84C26.17 4.96 26.22 5.04 26.31 5.12ZM28.34 12.95C28.21 12.92 27.54 12.80 27.54 12.80L27.54 6.73L25.28 6.73L25.28 7.32C25.28 7.45 25.37 7.56 25.49 7.59C25.62 7.62 26.31 7.74 26.31 7.74L26.31 12.80C26.31 12.80 25.62 12.92 25.49 12.95C25.37 12.98 25.28 13.09 25.28 13.22L25.28 13.82L28.55 13.82L28.55 13.22C28.55 13.09 28.46 12.98 28.34 12.95ZM36.50 6.73L33.84 6.73L33.84 7.32C33.84 7.46 33.91 7.56 34.05 7.59C34.47 7.67 34.73 7.71 34.85 7.74L33.33 11.55C33.25 11.77 33.17 12.11 33.05 12.56C32.97 12.11 32.89 11.76 32.80 11.55L31.30 7.74C31.74 7.66 31.99 7.63 32.07 7.60C32.21 7.57 32.28 7.48 32.28 7.34L32.28 6.73L29.11 6.73L29.11 7.34C29.11 7.48 29.18 7.57 29.32 7.60C29.34 7.60 29.44 7.63 29.62 7.66C29.81 7.69 29.92 7.71 30.00 7.74L32.48 13.83L33.61 13.83L36.09 7.74C36.50 7.66 36.72 7.60 36.78 7.60C36.92 7.57 36.99 7.49 36.99 7.35L36.99 6.73ZM40.49 6.62C39.98 6.62 39.52 6.71 39.10 6.89C38.68 7.07 38.33 7.32 38.05 7.63C37.77 7.94 37.55 8.33 37.39 8.75C37.24 9.17 37.16 9.62 37.16 10.12C37.16 10.74 37.24 11.27 37.41 11.75C37.58 12.22 37.80 12.61 38.11 12.94C38.42 13.26 38.77 13.51 39.19 13.68C39.61 13.85 40.05 13.93 40.54 13.93C40.80 13.93 41.06 13.90 41.31 13.86C41.57 13.82 41.82 13.75 42.07 13.66C42.32 13.58 42.53 13.45 42.76 13.31C42.98 13.17 43.16 13.03 43.32 12.84L42.97 12.38C42.91 12.29 42.84 12.25 42.73 12.25C42.64 12.25 42.56 12.29 42.45 12.36C42.34 12.43 42.20 12.50 42.03 12.59C41.86 12.67 41.66 12.75 41.44 12.82C41.22 12.89 40.94 12.92 40.63 12.92C40.29 12.92 40.01 12.87 39.73 12.75C39.45 12.64 39.23 12.47 39.03 12.25C38.84 12.03 38.67 11.77 38.56 11.44C38.44 11.10 38.39 10.71 38.39 10.26L43.09 10.26C43.20 10.26 43.30 10.22 43.34 10.16C43.39 10.11 43.40 9.97 43.40 9.77C43.40 9.27 43.32 8.82 43.18 8.43C43.04 8.04 42.81 7.70 42.56 7.43C42.31 7.17 42.00 6.97 41.64 6.83C41.27 6.69 40.88 6.62 40.46 6.62ZM40.49 7.55C40.77 7.55 41.03 7.59 41.26 7.69C41.48 7.78 41.68 7.92 41.83 8.09C41.99 8.26 42.08 8.48 42.17 8.72C42.25 8.96 42.29 9.23 42.29 9.51L38.44 9.51C38.53 8.89 38.75 8.40 39.09 8.05C39.42 7.70 39.90 7.53 40.50 7.53ZM46.42 8.18L46.34 7.07C46.31 6.94 46.28 6.86 46.23 6.80C46.17 6.75 46.10 6.73 45.96 6.73L45.25 6.73L44.24 6.73L44.24 7.32C44.24 7.46 44.31 7.56 44.45 7.59C44.53 7.62 44.80 7.67 45.25 7.76L45.25 12.81L44.45 12.96C44.31 12.99 44.24 13.09 44.24 13.23L44.24 13.82L47.50 13.82L47.50 13.23C47.50 13.09 47.43 12.99 47.29 12.96C46.87 12.88 46.61 12.84 46.49 12.81L46.49 9.31C46.89 8.33 47.50 7.83 48.31 7.83C48.57 7.83 48.75 7.85 48.89 7.90C49.03 7.94 49.14 7.97 49.22 7.97C49.31 7.97 49.38 7.90 49.41 7.78L49.56 6.85C49.28 6.68 48.96 6.59 48.59 6.59C47.67 6.59 46.96 7.13 46.44 8.18Z"></path></g> <linearGradient data-v-1084b650="" gradientTransform="rotate(25)" id="770a5439-29e6-faeb-080e-8af197a396a6" x1="0%" y1="0%" x2="100%" y2="0%"><stop data-v-1084b650="" offset="0%" style="stop-color: rgb(48, 9, 42); stop-opacity: 1;"></stop> <stop data-v-1084b650="" offset="100%" style="stop-color: rgb(203, 60, 97); stop-opacity: 1;"></stop></linearGradient> <g data-v-1084b650="" id="eeb16987-b927-023b-be37-c8b830b70608" fill="url(#770a5439-29e6-faeb-080e-8af197a396a6)" stroke="none" transform="matrix(0.683665469208058,0,0,0.683665469208058,47.450182032232235,16.563144473987066)"><svg xmlns="http://www.w3.org/2000/svg" xmlns:xlink="http://www.w3.org/1999/xlink" xml:space="preserve" style="shape-rendering:geometricPrecision;text-rendering:geometricPrecision;image-rendering:optimizeQuality;" viewBox="0 0 100 100" x="0px" y="0px" fill-rule="evenodd" clip-rule="evenodd"><defs><style type="text/css">
   
    .fil0 {fill:black;fill-rule:nonzero}
   
  </style></defs><g><path class="fil0" d="M74.9353 32.1767l-30.8245 -4.254 -22.0787 33.9011 3.5736 0.4931 27.2522 3.7603 19.8508 -30.4809 2.2266 -3.4196zm-49.1481 31.1879l-2.784 4.2753 32.1541 4.4367 22.8106 -35.0261 -4.5856 -0.6327 -19.8508 30.4809 -0.1758 0.2698 -0.3164 -0.0436 -27.2521 -3.7603zm48.2062 -27.8852l4.902 0.6764 0.7925 0.1094 -0.4353 0.6684 -23.4216 35.9645 -0.1758 0.2698 -0.3164 -0.0436 -33.2631 -4.5897 -0.7924 -0.1094 0.4352 -0.6684 2.9597 -4.5452 -3.5736 -0.4931 -0.7925 -0.1094 0.4353 -0.6684 22.6898 -34.8395 0.1758 -0.2698 0.3164 0.0436 31.9333 4.4071 0.7924 0.1094 -0.4352 0.6684 -2.2265 3.4195z"></path></g></svg></g></svg>